<mxfile host="app.diagrams.net" agent="Mozilla/5.0 (Windows NT 10.0; Win64; x64) AppleWebKit/537.36 (KHTML, like Gecko) Chrome/138.0.0.0 Safari/537.36" version="28.0.7" pages="4">
  <diagram name="Home Page" id="nsT_gO27rS15Le9BZflL">
    <mxGraphModel dx="918" dy="498" grid="1" gridSize="10" guides="1" tooltips="1" connect="1" arrows="1" fold="1" page="1" pageScale="1" pageWidth="840" pageHeight="1465" math="0" shadow="0">
      <root>
        <mxCell id="0" />
        <mxCell id="1" parent="0" />
        <mxCell id="Oln0R2VdHqKdKco7Yrnv-1" value="&lt;h1&gt;&lt;font style=&quot;font-size: 30px;&quot;&gt;&lt;b style=&quot;&quot;&gt;Title&lt;/b&gt;&lt;/font&gt;&lt;/h1&gt;" style="rounded=0;whiteSpace=wrap;html=1;fillColor=#e1d5e7;strokeColor=#9673a6;" parent="1" vertex="1">
          <mxGeometry width="840" height="90" as="geometry" />
        </mxCell>
        <mxCell id="Oln0R2VdHqKdKco7Yrnv-2" value="&lt;font style=&quot;font-size: 15px;&quot;&gt;logo&lt;/font&gt;" style="ellipse;whiteSpace=wrap;html=1;aspect=fixed;fillColor=#76608a;strokeColor=#432D57;fontColor=#ffffff;" parent="1" vertex="1">
          <mxGeometry x="20" y="12.5" width="65" height="65" as="geometry" />
        </mxCell>
        <mxCell id="Oln0R2VdHqKdKco7Yrnv-3" value="&lt;h3&gt;&lt;font style=&quot;font-size: 15px;&quot;&gt;Home - Search - About Me - Contact&lt;/font&gt;&lt;/h3&gt;" style="rounded=1;whiteSpace=wrap;html=1;fillColor=#76608a;fontColor=#ffffff;strokeColor=#432D57;fontSize=15;" parent="1" vertex="1">
          <mxGeometry x="550" y="22.5" width="270" height="45" as="geometry" />
        </mxCell>
        <mxCell id="Oln0R2VdHqKdKco7Yrnv-4" value="&lt;i&gt;Name of Author&lt;/i&gt;" style="text;html=1;align=left;verticalAlign=middle;whiteSpace=wrap;rounded=0;fontSize=15;" parent="1" vertex="1">
          <mxGeometry x="90" y="30" width="80" height="30" as="geometry" />
        </mxCell>
        <mxCell id="NI9p5fcPXKS2fMP0RlFB-1" value="" style="rounded=1;whiteSpace=wrap;html=1;fillColor=#f5f5f5;strokeColor=#666666;fontColor=#333333;" parent="1" vertex="1">
          <mxGeometry x="80" y="120" width="680" height="280" as="geometry" />
        </mxCell>
        <mxCell id="NI9p5fcPXKS2fMP0RlFB-5" value="&lt;div style=&quot;line-height: 80%;&quot;&gt;&lt;h1 style=&quot;margin-top: 0px; line-height: 80%;&quot;&gt;&lt;span style=&quot;background-color: transparent; color: light-dark(rgb(0, 0, 0), rgb(255, 255, 255));&quot;&gt;Welcome Message&lt;/span&gt;&lt;/h1&gt;&lt;h1 style=&quot;margin-top: 0px; line-height: 80%;&quot;&gt;&lt;span style=&quot;background-color: transparent; color: light-dark(rgb(0, 0, 0), rgb(255, 255, 255)); font-size: 15px; font-weight: normal; line-height: 80%;&quot;&gt;Lorem ipsum dolor sit amet, consectetur adipisicing elit, sed do eiusmod tempor incididunt ut labore et dolore magna aliqua.&lt;/span&gt;&lt;/h1&gt;&lt;p&gt;.&lt;/p&gt;&lt;p&gt;.&lt;/p&gt;&lt;p&gt;.&lt;/p&gt;&lt;p&gt;.&lt;/p&gt;&lt;/div&gt;" style="text;html=1;whiteSpace=wrap;overflow=hidden;rounded=0;align=center;fontSize=15;verticalAlign=top;" parent="1" vertex="1">
          <mxGeometry x="120" y="150" width="600" height="240" as="geometry" />
        </mxCell>
        <mxCell id="cpVmVMjKFqIBQuIsHZfA-7" value="music player picture" style="rounded=1;whiteSpace=wrap;html=1;fillColor=#76608a;fontColor=#ffffff;strokeColor=#432D57;" parent="1" vertex="1">
          <mxGeometry x="80" y="480" width="200" height="280" as="geometry" />
        </mxCell>
        <mxCell id="cpVmVMjKFqIBQuIsHZfA-14" value="What is music?" style="text;strokeColor=none;fillColor=none;html=1;fontSize=25;fontStyle=1;verticalAlign=middle;align=left;" parent="1" vertex="1">
          <mxGeometry x="300" y="479" width="220" height="40" as="geometry" />
        </mxCell>
        <mxCell id="cpVmVMjKFqIBQuIsHZfA-16" value="&lt;span&gt;Description about music and where it came from, why its so popular, etc...&lt;/span&gt;&lt;div&gt;&lt;span&gt;&lt;br&gt;&lt;/span&gt;&lt;/div&gt;&lt;div&gt;&lt;span&gt;.&lt;/span&gt;&lt;/div&gt;&lt;div&gt;&lt;span&gt;.&lt;/span&gt;&lt;/div&gt;&lt;div&gt;&lt;span&gt;.&lt;/span&gt;&lt;/div&gt;&lt;div&gt;&lt;span&gt;.&lt;/span&gt;&lt;/div&gt;&lt;div&gt;&lt;span&gt;.&lt;/span&gt;&lt;/div&gt;&lt;div&gt;&lt;span&gt;.&lt;/span&gt;&lt;/div&gt;&lt;div&gt;&lt;span&gt;.&lt;/span&gt;&lt;/div&gt;&lt;div&gt;.&lt;/div&gt;&lt;div&gt;.&lt;/div&gt;" style="text;html=1;align=left;verticalAlign=middle;whiteSpace=wrap;rounded=0;spacing=0;fontSize=15;" parent="1" vertex="1">
          <mxGeometry x="300" y="530" width="440" height="230" as="geometry" />
        </mxCell>
        <mxCell id="cpVmVMjKFqIBQuIsHZfA-17" value="" style="endArrow=none;html=1;rounded=0;exitX=0;exitY=1;exitDx=0;exitDy=0;fontSize=12;strokeWidth=2;" parent="1" edge="1">
          <mxGeometry width="50" height="50" relative="1" as="geometry">
            <mxPoint x="300" y="521" as="sourcePoint" />
            <mxPoint x="600" y="521" as="targetPoint" />
            <Array as="points">
              <mxPoint x="400" y="521" />
            </Array>
          </mxGeometry>
        </mxCell>
        <mxCell id="cpVmVMjKFqIBQuIsHZfA-18" value="picture of top 1&lt;div&gt;popular music&lt;/div&gt;" style="whiteSpace=wrap;html=1;aspect=fixed;fillColor=#e1d5e7;strokeColor=#9673a6;" parent="1" vertex="1">
          <mxGeometry x="80" y="980" width="160" height="160" as="geometry" />
        </mxCell>
        <mxCell id="cpVmVMjKFqIBQuIsHZfA-19" value="" style="endArrow=none;html=1;rounded=0;strokeWidth=2;" parent="1" edge="1">
          <mxGeometry width="50" height="50" relative="1" as="geometry">
            <mxPoint x="160" y="860" as="sourcePoint" />
            <mxPoint x="680" y="860" as="targetPoint" />
          </mxGeometry>
        </mxCell>
        <mxCell id="cpVmVMjKFqIBQuIsHZfA-20" value="&lt;h1&gt;Top 6 Popular Music&amp;nbsp;&lt;/h1&gt;" style="text;html=1;align=center;verticalAlign=middle;whiteSpace=wrap;rounded=0;fontSize=15;" parent="1" vertex="1">
          <mxGeometry x="255" y="820" width="330" height="30" as="geometry" />
        </mxCell>
        <mxCell id="cpVmVMjKFqIBQuIsHZfA-24" value="&lt;h1 style=&quot;margin-top: 0px;&quot;&gt;Title of song&lt;/h1&gt;&lt;p&gt;Description of song, artist and other info.&lt;/p&gt;&lt;p&gt;&lt;br&gt;&lt;/p&gt;" style="text;html=1;whiteSpace=wrap;overflow=hidden;rounded=0;align=center;" parent="1" vertex="1">
          <mxGeometry x="80" y="1150" width="160" height="109" as="geometry" />
        </mxCell>
        <mxCell id="cpVmVMjKFqIBQuIsHZfA-25" value="picture of top 2&lt;div&gt;popular music&lt;/div&gt;" style="whiteSpace=wrap;html=1;aspect=fixed;fillColor=#e1d5e7;strokeColor=#9673a6;" parent="1" vertex="1">
          <mxGeometry x="340" y="980" width="160" height="160" as="geometry" />
        </mxCell>
        <mxCell id="cpVmVMjKFqIBQuIsHZfA-41" value="picture of top 3&lt;div&gt;popular music&lt;/div&gt;" style="whiteSpace=wrap;html=1;aspect=fixed;fillColor=#e1d5e7;strokeColor=#9673a6;" parent="1" vertex="1">
          <mxGeometry x="600" y="980" width="160" height="160" as="geometry" />
        </mxCell>
        <mxCell id="cpVmVMjKFqIBQuIsHZfA-42" value="&lt;h1 style=&quot;margin-top: 0px;&quot;&gt;Title of song&lt;/h1&gt;&lt;p&gt;Description of song, artist and other info.&lt;/p&gt;&lt;p&gt;&lt;br&gt;&lt;/p&gt;" style="text;html=1;whiteSpace=wrap;overflow=hidden;rounded=0;align=center;" parent="1" vertex="1">
          <mxGeometry x="340" y="1150" width="160" height="109" as="geometry" />
        </mxCell>
        <mxCell id="cpVmVMjKFqIBQuIsHZfA-43" value="&lt;h1 style=&quot;margin-top: 0px;&quot;&gt;Title of song&lt;/h1&gt;&lt;p&gt;Description of song, artist and other info.&lt;/p&gt;&lt;p&gt;&lt;br&gt;&lt;/p&gt;" style="text;html=1;whiteSpace=wrap;overflow=hidden;rounded=0;align=center;" parent="1" vertex="1">
          <mxGeometry x="600" y="1150" width="160" height="109" as="geometry" />
        </mxCell>
        <mxCell id="cpVmVMjKFqIBQuIsHZfA-45" value="these top 6 songs are currently the most HOT and POPULAR music according to BILLBOARD charts" style="rounded=1;whiteSpace=wrap;html=1;fillColor=#f5f5f5;fontColor=#333333;strokeColor=#666666;" parent="1" vertex="1">
          <mxGeometry x="120" y="880" width="600" height="80" as="geometry" />
        </mxCell>
        <mxCell id="cpVmVMjKFqIBQuIsHZfA-46" value="&lt;h1 style=&quot;margin-top: 0px;&quot;&gt;Title of song&lt;/h1&gt;&lt;p&gt;Description of song, artist and other info.&lt;/p&gt;&lt;p&gt;&lt;br&gt;&lt;/p&gt;" style="text;html=1;whiteSpace=wrap;overflow=hidden;rounded=0;align=center;" parent="1" vertex="1">
          <mxGeometry x="80" y="1450" width="160" height="109" as="geometry" />
        </mxCell>
        <mxCell id="cpVmVMjKFqIBQuIsHZfA-47" value="&lt;h1 style=&quot;margin-top: 0px;&quot;&gt;Title of song&lt;/h1&gt;&lt;p&gt;Description of song, artist and other info.&lt;/p&gt;&lt;p&gt;&lt;br&gt;&lt;/p&gt;" style="text;html=1;whiteSpace=wrap;overflow=hidden;rounded=0;align=center;" parent="1" vertex="1">
          <mxGeometry x="340" y="1450" width="160" height="109" as="geometry" />
        </mxCell>
        <mxCell id="cpVmVMjKFqIBQuIsHZfA-48" value="&lt;h1 style=&quot;margin-top: 0px;&quot;&gt;Title of song&lt;/h1&gt;&lt;p&gt;Description of song, artist and other info.&lt;/p&gt;&lt;p&gt;&lt;br&gt;&lt;/p&gt;" style="text;html=1;whiteSpace=wrap;overflow=hidden;rounded=0;align=center;" parent="1" vertex="1">
          <mxGeometry x="600" y="1450" width="160" height="109" as="geometry" />
        </mxCell>
        <mxCell id="cpVmVMjKFqIBQuIsHZfA-49" value="picture of top 5&lt;div&gt;popular music&lt;/div&gt;" style="whiteSpace=wrap;html=1;aspect=fixed;fillColor=#e1d5e7;strokeColor=#9673a6;" parent="1" vertex="1">
          <mxGeometry x="340" y="1280" width="160" height="160" as="geometry" />
        </mxCell>
        <mxCell id="cpVmVMjKFqIBQuIsHZfA-50" value="picture of top 4&lt;div&gt;popular music&lt;/div&gt;" style="whiteSpace=wrap;html=1;aspect=fixed;fillColor=#e1d5e7;strokeColor=#9673a6;" parent="1" vertex="1">
          <mxGeometry x="80" y="1280" width="160" height="160" as="geometry" />
        </mxCell>
        <mxCell id="cpVmVMjKFqIBQuIsHZfA-51" value="picture of top 6&lt;div&gt;popular music&lt;/div&gt;" style="whiteSpace=wrap;html=1;aspect=fixed;fillColor=#e1d5e7;strokeColor=#9673a6;" parent="1" vertex="1">
          <mxGeometry x="600" y="1280" width="160" height="160" as="geometry" />
        </mxCell>
        <mxCell id="cpVmVMjKFqIBQuIsHZfA-52" value="music player picture" style="rounded=1;whiteSpace=wrap;html=1;fillColor=#76608a;fontColor=#ffffff;strokeColor=#432D57;" parent="1" vertex="1">
          <mxGeometry x="560" y="1600" width="200" height="280" as="geometry" />
        </mxCell>
        <mxCell id="cpVmVMjKFqIBQuIsHZfA-53" value="Music Genres" style="text;strokeColor=none;fillColor=none;html=1;fontSize=25;fontStyle=1;verticalAlign=middle;align=right;" parent="1" vertex="1">
          <mxGeometry x="320" y="1600" width="220" height="40" as="geometry" />
        </mxCell>
        <mxCell id="cpVmVMjKFqIBQuIsHZfA-54" value="" style="endArrow=none;html=1;rounded=0;exitX=0;exitY=1;exitDx=0;exitDy=0;fontSize=12;strokeWidth=2;" parent="1" edge="1">
          <mxGeometry width="50" height="50" relative="1" as="geometry">
            <mxPoint x="240" y="1640" as="sourcePoint" />
            <mxPoint x="540" y="1640" as="targetPoint" />
            <Array as="points">
              <mxPoint x="340" y="1640" />
            </Array>
          </mxGeometry>
        </mxCell>
        <mxCell id="cpVmVMjKFqIBQuIsHZfA-56" value="&lt;span&gt;Description about music and where it came from, why its so popular, etc...&lt;/span&gt;&lt;div&gt;&lt;span&gt;&lt;br&gt;&lt;/span&gt;&lt;/div&gt;&lt;div&gt;&lt;span&gt;.&lt;/span&gt;&lt;/div&gt;&lt;div&gt;&lt;span&gt;.&lt;/span&gt;&lt;/div&gt;&lt;div&gt;&lt;span&gt;.&lt;/span&gt;&lt;/div&gt;&lt;div&gt;&lt;span&gt;.&lt;/span&gt;&lt;/div&gt;&lt;div&gt;&lt;span&gt;.&lt;/span&gt;&lt;/div&gt;&lt;div&gt;&lt;span&gt;.&lt;/span&gt;&lt;/div&gt;&lt;div&gt;&lt;span&gt;.&lt;/span&gt;&lt;/div&gt;&lt;div&gt;.&lt;/div&gt;&lt;div&gt;.&lt;/div&gt;" style="text;html=1;align=right;verticalAlign=middle;whiteSpace=wrap;rounded=0;spacing=0;fontSize=15;" parent="1" vertex="1">
          <mxGeometry x="100" y="1650" width="440" height="230" as="geometry" />
        </mxCell>
        <mxCell id="cpVmVMjKFqIBQuIsHZfA-126" value="&lt;h1&gt;Types of Music&lt;/h1&gt;" style="text;html=1;align=center;verticalAlign=middle;whiteSpace=wrap;rounded=0;fontSize=15;" parent="1" vertex="1">
          <mxGeometry x="260" y="1930" width="300" height="30" as="geometry" />
        </mxCell>
        <mxCell id="cpVmVMjKFqIBQuIsHZfA-127" value="" style="endArrow=none;html=1;rounded=0;strokeWidth=2;" parent="1" edge="1">
          <mxGeometry width="50" height="50" relative="1" as="geometry">
            <mxPoint x="160" y="1970" as="sourcePoint" />
            <mxPoint x="680" y="1970" as="targetPoint" />
          </mxGeometry>
        </mxCell>
        <mxCell id="cpVmVMjKFqIBQuIsHZfA-130" value="icon" style="rounded=1;whiteSpace=wrap;html=1;fillColor=#f5f5f5;fontColor=#333333;strokeColor=#666666;" parent="1" vertex="1">
          <mxGeometry x="80" y="2000" width="120" height="120" as="geometry" />
        </mxCell>
        <mxCell id="cpVmVMjKFqIBQuIsHZfA-131" value="&lt;h1 style=&quot;margin-top: 0px;&quot;&gt;Pop Music&lt;/h1&gt;&lt;p&gt;Lorem ipsum dolor sit amet, consectetur adipisicing elit, sed do eiusmod tempor incididunt ut labore et dolore magna aliqua.&lt;/p&gt;" style="text;html=1;whiteSpace=wrap;overflow=hidden;rounded=0;fontSize=12;" parent="1" vertex="1">
          <mxGeometry x="210" y="2000" width="180" height="120" as="geometry" />
        </mxCell>
        <mxCell id="cpVmVMjKFqIBQuIsHZfA-133" value="icon" style="rounded=1;whiteSpace=wrap;html=1;fillColor=#f5f5f5;fontColor=#333333;strokeColor=#666666;" parent="1" vertex="1">
          <mxGeometry x="440" y="2000" width="120" height="120" as="geometry" />
        </mxCell>
        <mxCell id="cpVmVMjKFqIBQuIsHZfA-134" value="&lt;h1 style=&quot;margin-top: 0px;&quot;&gt;Rock Music&lt;/h1&gt;&lt;p&gt;Lorem ipsum dolor sit amet, consectetur adipisicing elit, sed do eiusmod tempor incididunt ut labore et dolore magna aliqua.&lt;/p&gt;" style="text;html=1;whiteSpace=wrap;overflow=hidden;rounded=0;fontSize=12;" parent="1" vertex="1">
          <mxGeometry x="570" y="2000" width="180" height="120" as="geometry" />
        </mxCell>
        <mxCell id="cpVmVMjKFqIBQuIsHZfA-135" value="&lt;h1 style=&quot;margin-top: 0px;&quot;&gt;Hip-Hop/Rap&lt;/h1&gt;&lt;p&gt;Lorem ipsum dolor sit amet, consectetur adipisicing elit, sed do eiusmod tempor incididunt ut labore et dolore magna aliqua.&lt;/p&gt;" style="text;html=1;whiteSpace=wrap;overflow=hidden;rounded=0;fontSize=12;" parent="1" vertex="1">
          <mxGeometry x="210" y="2160" width="180" height="120" as="geometry" />
        </mxCell>
        <mxCell id="cpVmVMjKFqIBQuIsHZfA-136" value="icon" style="rounded=1;whiteSpace=wrap;html=1;fillColor=#f5f5f5;fontColor=#333333;strokeColor=#666666;" parent="1" vertex="1">
          <mxGeometry x="80" y="2160" width="120" height="120" as="geometry" />
        </mxCell>
        <mxCell id="cpVmVMjKFqIBQuIsHZfA-137" value="icon" style="rounded=1;whiteSpace=wrap;html=1;fillColor=#f5f5f5;fontColor=#333333;strokeColor=#666666;" parent="1" vertex="1">
          <mxGeometry x="80" y="2320" width="120" height="120" as="geometry" />
        </mxCell>
        <mxCell id="cpVmVMjKFqIBQuIsHZfA-138" value="icon" style="rounded=1;whiteSpace=wrap;html=1;fillColor=#f5f5f5;fontColor=#333333;strokeColor=#666666;" parent="1" vertex="1">
          <mxGeometry x="80" y="2480" width="120" height="120" as="geometry" />
        </mxCell>
        <mxCell id="cpVmVMjKFqIBQuIsHZfA-139" value="icon" style="rounded=1;whiteSpace=wrap;html=1;fillColor=#f5f5f5;fontColor=#333333;strokeColor=#666666;" parent="1" vertex="1">
          <mxGeometry x="80" y="2640" width="120" height="120" as="geometry" />
        </mxCell>
        <mxCell id="cpVmVMjKFqIBQuIsHZfA-140" value="icon" style="rounded=1;whiteSpace=wrap;html=1;fillColor=#f5f5f5;fontColor=#333333;strokeColor=#666666;" parent="1" vertex="1">
          <mxGeometry x="440" y="2160" width="120" height="120" as="geometry" />
        </mxCell>
        <mxCell id="cpVmVMjKFqIBQuIsHZfA-141" value="icon" style="rounded=1;whiteSpace=wrap;html=1;fillColor=#f5f5f5;fontColor=#333333;strokeColor=#666666;" parent="1" vertex="1">
          <mxGeometry x="440" y="2320" width="120" height="120" as="geometry" />
        </mxCell>
        <mxCell id="cpVmVMjKFqIBQuIsHZfA-142" value="icon" style="rounded=1;whiteSpace=wrap;html=1;fillColor=#f5f5f5;fontColor=#333333;strokeColor=#666666;" parent="1" vertex="1">
          <mxGeometry x="440" y="2480" width="120" height="120" as="geometry" />
        </mxCell>
        <mxCell id="cpVmVMjKFqIBQuIsHZfA-143" value="icon" style="rounded=1;whiteSpace=wrap;html=1;fillColor=#f5f5f5;fontColor=#333333;strokeColor=#666666;" parent="1" vertex="1">
          <mxGeometry x="440" y="2640" width="120" height="120" as="geometry" />
        </mxCell>
        <mxCell id="cpVmVMjKFqIBQuIsHZfA-144" value="&lt;h1 style=&quot;margin-top: 0px;&quot;&gt;Country&lt;/h1&gt;&lt;p&gt;Lorem ipsum dolor sit amet, consectetur adipisicing elit, sed do eiusmod tempor incididunt ut labore et dolore magna aliqua.&lt;/p&gt;" style="text;html=1;whiteSpace=wrap;overflow=hidden;rounded=0;fontSize=12;" parent="1" vertex="1">
          <mxGeometry x="570" y="2160" width="180" height="120" as="geometry" />
        </mxCell>
        <mxCell id="cpVmVMjKFqIBQuIsHZfA-146" value="&lt;h1 style=&quot;margin-top: 0px;&quot;&gt;R&amp;amp;B/Soul&lt;/h1&gt;&lt;p&gt;Lorem ipsum dolor sit amet, consectetur adipisicing elit, sed do eiusmod tempor incididunt ut labore et dolore magna aliqua.&lt;/p&gt;" style="text;html=1;whiteSpace=wrap;overflow=hidden;rounded=0;fontSize=12;" parent="1" vertex="1">
          <mxGeometry x="210" y="2320" width="180" height="120" as="geometry" />
        </mxCell>
        <mxCell id="uX91xzx2g3HFfysdre06-1" value="&lt;h1 style=&quot;margin-top: 0px;&quot;&gt;EDM&lt;/h1&gt;&lt;p&gt;Lorem ipsum dolor sit amet, consectetur adipisicing elit, sed do eiusmod tempor incididunt ut labore et dolore magna aliqua.&lt;/p&gt;" style="text;html=1;whiteSpace=wrap;overflow=hidden;rounded=0;fontSize=12;" parent="1" vertex="1">
          <mxGeometry x="570" y="2320" width="180" height="120" as="geometry" />
        </mxCell>
        <mxCell id="uX91xzx2g3HFfysdre06-2" value="&lt;h1 style=&quot;margin-top: 0px;&quot;&gt;Classical Music&lt;/h1&gt;&lt;p&gt;Lorem ipsum dolor sit amet, consectetur adipisicing elit, sed do eiusmod tempor incididunt ut labore et dolore magna aliqua.&lt;/p&gt;" style="text;html=1;whiteSpace=wrap;overflow=hidden;rounded=0;fontSize=12;" parent="1" vertex="1">
          <mxGeometry x="210" y="2480" width="190" height="120" as="geometry" />
        </mxCell>
        <mxCell id="uX91xzx2g3HFfysdre06-3" value="&lt;h1 style=&quot;margin-top: 0px;&quot;&gt;Jazz&lt;/h1&gt;&lt;p&gt;Lorem ipsum dolor sit amet, consectetur adipisicing elit, sed do eiusmod tempor incididunt ut labore et dolore magna aliqua.&lt;/p&gt;" style="text;html=1;whiteSpace=wrap;overflow=hidden;rounded=0;fontSize=12;" parent="1" vertex="1">
          <mxGeometry x="570" y="2480" width="180" height="120" as="geometry" />
        </mxCell>
        <mxCell id="uX91xzx2g3HFfysdre06-4" value="&lt;h1 style=&quot;margin-top: 0px;&quot;&gt;K-Pop&lt;/h1&gt;&lt;p&gt;Lorem ipsum dolor sit amet, consectetur adipisicing elit, sed do eiusmod tempor incididunt ut labore et dolore magna aliqua.&lt;/p&gt;" style="text;html=1;whiteSpace=wrap;overflow=hidden;rounded=0;fontSize=12;" parent="1" vertex="1">
          <mxGeometry x="210" y="2640" width="190" height="120" as="geometry" />
        </mxCell>
        <mxCell id="uX91xzx2g3HFfysdre06-5" value="&lt;h1 style=&quot;margin-top: 0px;&quot;&gt;Reggae&lt;/h1&gt;&lt;p&gt;Lorem ipsum dolor sit amet, consectetur adipisicing elit, sed do eiusmod tempor incididunt ut labore et dolore magna aliqua.&lt;/p&gt;" style="text;html=1;whiteSpace=wrap;overflow=hidden;rounded=0;fontSize=12;" parent="1" vertex="1">
          <mxGeometry x="570" y="2640" width="180" height="120" as="geometry" />
        </mxCell>
        <mxCell id="uX91xzx2g3HFfysdre06-6" value="&lt;font style=&quot;font-size: 20px;&quot;&gt;footer&lt;/font&gt;" style="rounded=0;whiteSpace=wrap;html=1;fillColor=#e1d5e7;strokeColor=#9673a6;fontStyle=2" parent="1" vertex="1">
          <mxGeometry y="2840" width="840" height="90" as="geometry" />
        </mxCell>
        <mxCell id="v7ZseobIAnE6Bw3UTbox-1" value="&lt;h3&gt;&lt;font&gt;Home&amp;nbsp; &amp;nbsp;Search&amp;nbsp; &amp;nbsp;About Me&amp;nbsp; &amp;nbsp;Contact&lt;/font&gt;&lt;/h3&gt;" style="rounded=1;whiteSpace=wrap;html=1;fillColor=#76608a;fontColor=#ffffff;strokeColor=#432D57;fontSize=12;" vertex="1" parent="1">
          <mxGeometry x="550" y="22.5" width="270" height="45" as="geometry" />
        </mxCell>
      </root>
    </mxGraphModel>
  </diagram>
  <diagram name="Search Page" id="zGeyCF_MKxrO6UawVK6Y">
    <mxGraphModel dx="797" dy="392" grid="1" gridSize="10" guides="1" tooltips="1" connect="1" arrows="1" fold="1" page="1" pageScale="1" pageWidth="840" pageHeight="770" math="0" shadow="0">
      <root>
        <mxCell id="WF8RVg7GkMeUAvqLtf21-0" />
        <mxCell id="WF8RVg7GkMeUAvqLtf21-1" parent="WF8RVg7GkMeUAvqLtf21-0" />
        <mxCell id="WF8RVg7GkMeUAvqLtf21-2" value="&lt;h1&gt;&lt;font style=&quot;font-size: 30px;&quot;&gt;&lt;b style=&quot;&quot;&gt;Title&lt;/b&gt;&lt;/font&gt;&lt;/h1&gt;" style="rounded=0;whiteSpace=wrap;html=1;fillColor=#e1d5e7;strokeColor=#9673a6;" parent="WF8RVg7GkMeUAvqLtf21-1" vertex="1">
          <mxGeometry width="840" height="90" as="geometry" />
        </mxCell>
        <mxCell id="WF8RVg7GkMeUAvqLtf21-3" value="&lt;font style=&quot;font-size: 15px;&quot;&gt;logo&lt;/font&gt;" style="ellipse;whiteSpace=wrap;html=1;aspect=fixed;fillColor=#76608A;strokeColor=#432D57;fontColor=#ffffff;" parent="WF8RVg7GkMeUAvqLtf21-1" vertex="1">
          <mxGeometry x="20" y="12.5" width="65" height="65" as="geometry" />
        </mxCell>
        <mxCell id="WF8RVg7GkMeUAvqLtf21-4" value="&lt;h3&gt;&lt;font&gt;Home&amp;nbsp; &amp;nbsp;Search&amp;nbsp; &amp;nbsp;About Me&amp;nbsp; &amp;nbsp;Contact&lt;/font&gt;&lt;/h3&gt;" style="rounded=1;whiteSpace=wrap;html=1;fillColor=#76608a;fontColor=#ffffff;strokeColor=#432D57;fontSize=12;" parent="WF8RVg7GkMeUAvqLtf21-1" vertex="1">
          <mxGeometry x="550" y="22.5" width="270" height="45" as="geometry" />
        </mxCell>
        <mxCell id="WF8RVg7GkMeUAvqLtf21-5" value="&lt;i&gt;Name of Author&lt;/i&gt;" style="text;html=1;align=left;verticalAlign=middle;whiteSpace=wrap;rounded=0;fontSize=15;" parent="WF8RVg7GkMeUAvqLtf21-1" vertex="1">
          <mxGeometry x="90" y="30" width="80" height="30" as="geometry" />
        </mxCell>
        <mxCell id="OUkrFCOh-Yb8l0WITlsJ-3" value="&lt;b&gt;Search&lt;/b&gt; &lt;i&gt;(user can type here to search any song from Spotify)&lt;/i&gt;" style="strokeWidth=2;shadow=0;dashed=0;align=center;html=1;shape=mxgraph.mockup.forms.searchBox;strokeColor=light-dark(#7a5f89, #959595);mainText=;strokeColor2=#008cff;fontSize=15;align=left;spacingLeft=3;whiteSpace=wrap;labelBackgroundColor=none;labelBorderColor=none;spacing=10;fillColor=#f5f5f5;fontColor=#333333;fontStyle=0;" parent="WF8RVg7GkMeUAvqLtf21-1" vertex="1">
          <mxGeometry x="120" y="240" width="600" height="40" as="geometry" />
        </mxCell>
        <mxCell id="OUkrFCOh-Yb8l0WITlsJ-4" value="" style="rounded=1;whiteSpace=wrap;html=1;fillColor=#76608a;strokeColor=#432D57;fontColor=#ffffff;" parent="WF8RVg7GkMeUAvqLtf21-1" vertex="1">
          <mxGeometry x="240" y="320" width="360" height="280" as="geometry" />
        </mxCell>
        <mxCell id="OUkrFCOh-Yb8l0WITlsJ-5" value="&lt;h1 style=&quot;margin-top: 0px;&quot;&gt;Song Info&lt;/h1&gt;&lt;p&gt;Lorem ipsum dolor sit amet, consectetur adipisicing elit, sed do eiusmod tempor incididunt ut labore et dolore magna aliqua.&lt;/p&gt;" style="text;html=1;whiteSpace=wrap;overflow=hidden;rounded=0;align=center;fontSize=15;" parent="WF8RVg7GkMeUAvqLtf21-1" vertex="1">
          <mxGeometry x="180" y="120" width="480" height="120" as="geometry" />
        </mxCell>
        <mxCell id="OUkrFCOh-Yb8l0WITlsJ-6" value="&lt;h1 style=&quot;margin-top: 0px;&quot;&gt;&amp;lt;Song Name&amp;gt;&lt;/h1&gt;&lt;p&gt;Information about the song...&lt;/p&gt;&lt;p&gt;Title: ...&lt;/p&gt;&lt;p&gt;Artist: ...&lt;/p&gt;&lt;p&gt;Album: ...&lt;/p&gt;&lt;p&gt;&lt;br&gt;&lt;/p&gt;" style="text;html=1;whiteSpace=wrap;overflow=hidden;rounded=0;fontSize=15;fontColor=#FFFFFF;" parent="WF8RVg7GkMeUAvqLtf21-1" vertex="1">
          <mxGeometry x="295" y="350" width="250" height="210" as="geometry" />
        </mxCell>
        <mxCell id="YhafU3yqmCtr1pC--MFF-0" value="&lt;font style=&quot;font-size: 20px;&quot;&gt;footer&lt;/font&gt;" style="rounded=0;whiteSpace=wrap;html=1;fillColor=#e1d5e7;strokeColor=#9673a6;fontStyle=2" parent="WF8RVg7GkMeUAvqLtf21-1" vertex="1">
          <mxGeometry y="680" width="840" height="90" as="geometry" />
        </mxCell>
        <mxCell id="xkgucI06v35q0ErtY1p2-0" value="" style="endArrow=none;html=1;rounded=0;strokeWidth=2;" parent="WF8RVg7GkMeUAvqLtf21-1" edge="1">
          <mxGeometry width="50" height="50" relative="1" as="geometry">
            <mxPoint x="160" y="170" as="sourcePoint" />
            <mxPoint x="680" y="170" as="targetPoint" />
          </mxGeometry>
        </mxCell>
        <mxCell id="x_oOQUzI91dHHYmEFTJk-3" value="" style="html=1;verticalLabelPosition=bottom;align=center;labelBackgroundColor=#ffffff;verticalAlign=top;strokeWidth=2;strokeColor=#FFFFFF;shadow=0;dashed=0;shape=mxgraph.ios7.icons.note;pointerEvents=1;fillColor=#FFFFFF;" parent="WF8RVg7GkMeUAvqLtf21-1" vertex="1">
          <mxGeometry x="490" y="480" width="80" height="80" as="geometry" />
        </mxCell>
      </root>
    </mxGraphModel>
  </diagram>
  <diagram name="About Me Page" id="b72EBUpttT3Iz1DzCjXc">
    <mxGraphModel dx="872" dy="473" grid="1" gridSize="10" guides="1" tooltips="1" connect="1" arrows="1" fold="1" page="1" pageScale="1" pageWidth="840" pageHeight="730" math="0" shadow="0">
      <root>
        <mxCell id="oOA_Gc9O54v3SFeWrNsF-0" />
        <mxCell id="oOA_Gc9O54v3SFeWrNsF-1" parent="oOA_Gc9O54v3SFeWrNsF-0" />
        <mxCell id="oOA_Gc9O54v3SFeWrNsF-2" value="&lt;h1&gt;&lt;font style=&quot;font-size: 30px;&quot;&gt;&lt;b style=&quot;&quot;&gt;Title&lt;/b&gt;&lt;/font&gt;&lt;/h1&gt;" style="rounded=0;whiteSpace=wrap;html=1;fillColor=#e1d5e7;strokeColor=#9673a6;" vertex="1" parent="oOA_Gc9O54v3SFeWrNsF-1">
          <mxGeometry width="840" height="90" as="geometry" />
        </mxCell>
        <mxCell id="oOA_Gc9O54v3SFeWrNsF-3" value="&lt;font style=&quot;font-size: 15px;&quot;&gt;logo&lt;/font&gt;" style="ellipse;whiteSpace=wrap;html=1;aspect=fixed;fillColor=#76608a;strokeColor=#432D57;fontColor=#ffffff;" vertex="1" parent="oOA_Gc9O54v3SFeWrNsF-1">
          <mxGeometry x="20" y="12.5" width="65" height="65" as="geometry" />
        </mxCell>
        <mxCell id="oOA_Gc9O54v3SFeWrNsF-4" value="&lt;h3&gt;&lt;font style=&quot;font-size: 15px;&quot;&gt;Home - Search - About Me - Contact&lt;/font&gt;&lt;/h3&gt;" style="rounded=1;whiteSpace=wrap;html=1;fillColor=#76608a;fontColor=#ffffff;strokeColor=#432D57;fontSize=15;" vertex="1" parent="oOA_Gc9O54v3SFeWrNsF-1">
          <mxGeometry x="550" y="22.5" width="270" height="45" as="geometry" />
        </mxCell>
        <mxCell id="oOA_Gc9O54v3SFeWrNsF-5" value="&lt;i&gt;Name of Author&lt;/i&gt;" style="text;html=1;align=left;verticalAlign=middle;whiteSpace=wrap;rounded=0;fontSize=15;" vertex="1" parent="oOA_Gc9O54v3SFeWrNsF-1">
          <mxGeometry x="90" y="30" width="80" height="30" as="geometry" />
        </mxCell>
        <mxCell id="oOA_Gc9O54v3SFeWrNsF-10" value="&lt;font style=&quot;font-size: 20px;&quot;&gt;footer&lt;/font&gt;" style="rounded=0;whiteSpace=wrap;html=1;fillColor=#e1d5e7;strokeColor=#9673a6;fontStyle=2" vertex="1" parent="oOA_Gc9O54v3SFeWrNsF-1">
          <mxGeometry y="640" width="840" height="90" as="geometry" />
        </mxCell>
        <mxCell id="clBqaoBVZZhUQI2BcoSd-0" value="picture of author" style="rounded=1;whiteSpace=wrap;html=1;fillColor=#f5f5f5;fontColor=#333333;strokeColor=#666666;" vertex="1" parent="oOA_Gc9O54v3SFeWrNsF-1">
          <mxGeometry x="80" y="160" width="200" height="200" as="geometry" />
        </mxCell>
        <mxCell id="clBqaoBVZZhUQI2BcoSd-2" value="&lt;h1 style=&quot;margin-top: 0px;&quot;&gt;Who am I?&lt;/h1&gt;&lt;p&gt;Description of author (who, where, purpose of this website, etc.)&lt;/p&gt;&lt;p&gt;.&lt;/p&gt;&lt;p&gt;.&lt;/p&gt;&lt;p&gt;.&lt;/p&gt;" style="text;html=1;whiteSpace=wrap;overflow=hidden;rounded=0;fontSize=15;" vertex="1" parent="oOA_Gc9O54v3SFeWrNsF-1">
          <mxGeometry x="300" y="160" width="460" height="200" as="geometry" />
        </mxCell>
        <mxCell id="LUWH2JMf4lETlsljAKbb-0" value="" style="endArrow=none;html=1;rounded=0;strokeWidth=2;" edge="1" parent="oOA_Gc9O54v3SFeWrNsF-1">
          <mxGeometry width="50" height="50" relative="1" as="geometry">
            <mxPoint x="300" y="210" as="sourcePoint" />
            <mxPoint x="600" y="210" as="targetPoint" />
          </mxGeometry>
        </mxCell>
        <mxCell id="LUWH2JMf4lETlsljAKbb-5" value="my socials" style="rounded=1;whiteSpace=wrap;html=1;fontSize=15;fontStyle=2" vertex="1" parent="oOA_Gc9O54v3SFeWrNsF-1">
          <mxGeometry x="260" y="400" width="320" height="40" as="geometry" />
        </mxCell>
        <mxCell id="LUWH2JMf4lETlsljAKbb-6" value="icon" style="ellipse;whiteSpace=wrap;html=1;aspect=fixed;" vertex="1" parent="oOA_Gc9O54v3SFeWrNsF-1">
          <mxGeometry x="80" y="480" width="80" height="80" as="geometry" />
        </mxCell>
        <mxCell id="LUWH2JMf4lETlsljAKbb-7" value="icon" style="ellipse;whiteSpace=wrap;html=1;aspect=fixed;" vertex="1" parent="oOA_Gc9O54v3SFeWrNsF-1">
          <mxGeometry x="320" y="480" width="80" height="80" as="geometry" />
        </mxCell>
        <mxCell id="FvJy8pfBCH4aWSCy2E3l-0" value="icon" style="ellipse;whiteSpace=wrap;html=1;aspect=fixed;" vertex="1" parent="oOA_Gc9O54v3SFeWrNsF-1">
          <mxGeometry x="560" y="480" width="80" height="80" as="geometry" />
        </mxCell>
        <mxCell id="FvJy8pfBCH4aWSCy2E3l-5" value="&lt;h2&gt;Facebok&lt;/h2&gt;" style="text;html=1;align=left;verticalAlign=middle;whiteSpace=wrap;rounded=0;fontSize=15;" vertex="1" parent="oOA_Gc9O54v3SFeWrNsF-1">
          <mxGeometry x="170" y="505" width="110" height="30" as="geometry" />
        </mxCell>
        <mxCell id="FvJy8pfBCH4aWSCy2E3l-6" value="&lt;h2&gt;Instagram&lt;/h2&gt;" style="text;html=1;align=left;verticalAlign=middle;whiteSpace=wrap;rounded=0;fontSize=15;" vertex="1" parent="oOA_Gc9O54v3SFeWrNsF-1">
          <mxGeometry x="650" y="505" width="140" height="30" as="geometry" />
        </mxCell>
        <mxCell id="FvJy8pfBCH4aWSCy2E3l-7" value="&lt;h2&gt;LinkedIn&lt;/h2&gt;" style="text;html=1;align=left;verticalAlign=middle;whiteSpace=wrap;rounded=0;fontSize=15;" vertex="1" parent="oOA_Gc9O54v3SFeWrNsF-1">
          <mxGeometry x="410" y="505" width="100" height="30" as="geometry" />
        </mxCell>
        <mxCell id="iBeD0wi84K4HJtX9sdwO-0" value="&lt;h3&gt;&lt;font&gt;Home&amp;nbsp; &amp;nbsp;Search&amp;nbsp; &amp;nbsp;About Me&amp;nbsp; &amp;nbsp;Contact&lt;/font&gt;&lt;/h3&gt;" style="rounded=1;whiteSpace=wrap;html=1;fillColor=#76608a;fontColor=#ffffff;strokeColor=#432D57;fontSize=12;" vertex="1" parent="oOA_Gc9O54v3SFeWrNsF-1">
          <mxGeometry x="550" y="22.5" width="270" height="45" as="geometry" />
        </mxCell>
      </root>
    </mxGraphModel>
  </diagram>
  <diagram name="Contact Page" id="yzWeQ0byRye-HyEBasez">
    <mxGraphModel dx="872" dy="473" grid="1" gridSize="10" guides="1" tooltips="1" connect="1" arrows="1" fold="1" page="1" pageScale="1" pageWidth="840" pageHeight="770" math="0" shadow="0">
      <root>
        <mxCell id="E0kDeEo1v7iQbmQSBEWb-0" />
        <mxCell id="E0kDeEo1v7iQbmQSBEWb-1" parent="E0kDeEo1v7iQbmQSBEWb-0" />
        <mxCell id="E0kDeEo1v7iQbmQSBEWb-2" value="&lt;h1&gt;&lt;font style=&quot;font-size: 30px;&quot;&gt;&lt;b style=&quot;&quot;&gt;Title&lt;/b&gt;&lt;/font&gt;&lt;/h1&gt;" style="rounded=0;whiteSpace=wrap;html=1;fillColor=#e1d5e7;strokeColor=#9673a6;" vertex="1" parent="E0kDeEo1v7iQbmQSBEWb-1">
          <mxGeometry width="840" height="90" as="geometry" />
        </mxCell>
        <mxCell id="E0kDeEo1v7iQbmQSBEWb-3" value="&lt;font style=&quot;font-size: 15px;&quot;&gt;logo&lt;/font&gt;" style="ellipse;whiteSpace=wrap;html=1;aspect=fixed;fillColor=#76608a;strokeColor=#432D57;fontColor=#ffffff;" vertex="1" parent="E0kDeEo1v7iQbmQSBEWb-1">
          <mxGeometry x="20" y="12.5" width="65" height="65" as="geometry" />
        </mxCell>
        <mxCell id="E0kDeEo1v7iQbmQSBEWb-4" value="&lt;h3&gt;&lt;font style=&quot;font-size: 15px;&quot;&gt;Home - Search - About Me - Contact&lt;/font&gt;&lt;/h3&gt;" style="rounded=1;whiteSpace=wrap;html=1;fillColor=#76608a;fontColor=#ffffff;strokeColor=#432D57;fontSize=15;" vertex="1" parent="E0kDeEo1v7iQbmQSBEWb-1">
          <mxGeometry x="550" y="22.5" width="270" height="45" as="geometry" />
        </mxCell>
        <mxCell id="E0kDeEo1v7iQbmQSBEWb-5" value="&lt;i&gt;Name of Author&lt;/i&gt;" style="text;html=1;align=left;verticalAlign=middle;whiteSpace=wrap;rounded=0;fontSize=15;" vertex="1" parent="E0kDeEo1v7iQbmQSBEWb-1">
          <mxGeometry x="90" y="30" width="80" height="30" as="geometry" />
        </mxCell>
        <mxCell id="E0kDeEo1v7iQbmQSBEWb-10" value="&lt;font style=&quot;font-size: 20px;&quot;&gt;footer&lt;/font&gt;" style="rounded=0;whiteSpace=wrap;html=1;fillColor=#e1d5e7;strokeColor=#9673a6;fontStyle=2" vertex="1" parent="E0kDeEo1v7iQbmQSBEWb-1">
          <mxGeometry y="680" width="840" height="90" as="geometry" />
        </mxCell>
        <mxCell id="E0kDeEo1v7iQbmQSBEWb-11" value="" style="endArrow=none;html=1;rounded=0;strokeWidth=2;" edge="1" parent="E0kDeEo1v7iQbmQSBEWb-1">
          <mxGeometry width="50" height="50" relative="1" as="geometry">
            <mxPoint x="160" y="170" as="sourcePoint" />
            <mxPoint x="680" y="170" as="targetPoint" />
          </mxGeometry>
        </mxCell>
        <mxCell id="TihX2AwjWOslzcW3NIDc-0" value="Contact Us!" style="text;strokeColor=none;fillColor=none;html=1;fontSize=30;fontStyle=1;verticalAlign=middle;align=center;" vertex="1" parent="E0kDeEo1v7iQbmQSBEWb-1">
          <mxGeometry x="330" y="120" width="180" height="40" as="geometry" />
        </mxCell>
        <mxCell id="TihX2AwjWOslzcW3NIDc-3" value="" style="rounded=0;whiteSpace=wrap;html=1;fillColor=#f5f5f5;fontColor=#333333;strokeColor=#666666;" vertex="1" parent="E0kDeEo1v7iQbmQSBEWb-1">
          <mxGeometry x="120" y="200" width="600" height="400" as="geometry" />
        </mxCell>
        <mxCell id="TihX2AwjWOslzcW3NIDc-4" value="Name:" style="text;strokeColor=none;fillColor=none;html=1;fontSize=20;fontStyle=1;verticalAlign=middle;align=left;" vertex="1" parent="E0kDeEo1v7iQbmQSBEWb-1">
          <mxGeometry x="160" y="225" width="60" height="40" as="geometry" />
        </mxCell>
        <mxCell id="TihX2AwjWOslzcW3NIDc-5" value="Email:" style="text;strokeColor=none;fillColor=none;html=1;fontSize=20;fontStyle=1;verticalAlign=middle;align=left;" vertex="1" parent="E0kDeEo1v7iQbmQSBEWb-1">
          <mxGeometry x="160" y="280" width="60" height="40" as="geometry" />
        </mxCell>
        <mxCell id="TihX2AwjWOslzcW3NIDc-6" value="Subject:" style="text;strokeColor=none;fillColor=none;html=1;fontSize=20;fontStyle=1;verticalAlign=middle;align=left;" vertex="1" parent="E0kDeEo1v7iQbmQSBEWb-1">
          <mxGeometry x="160" y="335" width="80" height="40" as="geometry" />
        </mxCell>
        <mxCell id="TihX2AwjWOslzcW3NIDc-7" value="Message:" style="text;strokeColor=none;fillColor=none;html=1;fontSize=20;fontStyle=1;verticalAlign=middle;align=left;" vertex="1" parent="E0kDeEo1v7iQbmQSBEWb-1">
          <mxGeometry x="160" y="390" width="90" height="40" as="geometry" />
        </mxCell>
        <mxCell id="TihX2AwjWOslzcW3NIDc-8" value="" style="rounded=1;whiteSpace=wrap;html=1;" vertex="1" parent="E0kDeEo1v7iQbmQSBEWb-1">
          <mxGeometry x="230" y="230" width="450" height="30" as="geometry" />
        </mxCell>
        <mxCell id="TihX2AwjWOslzcW3NIDc-9" value="" style="rounded=1;whiteSpace=wrap;html=1;" vertex="1" parent="E0kDeEo1v7iQbmQSBEWb-1">
          <mxGeometry x="230" y="285" width="450" height="30" as="geometry" />
        </mxCell>
        <mxCell id="TihX2AwjWOslzcW3NIDc-12" value="SEND" style="rounded=1;whiteSpace=wrap;html=1;fillColor=#76608a;strokeColor=#432D57;fontColor=#ffffff;fontSize=15;fontStyle=1" vertex="1" parent="E0kDeEo1v7iQbmQSBEWb-1">
          <mxGeometry x="360" y="540" width="120" height="40" as="geometry" />
        </mxCell>
        <mxCell id="TihX2AwjWOslzcW3NIDc-15" value="" style="rounded=1;whiteSpace=wrap;html=1;" vertex="1" parent="E0kDeEo1v7iQbmQSBEWb-1">
          <mxGeometry x="250" y="340" width="430" height="30" as="geometry" />
        </mxCell>
        <mxCell id="TihX2AwjWOslzcW3NIDc-17" value="" style="rounded=1;whiteSpace=wrap;html=1;" vertex="1" parent="E0kDeEo1v7iQbmQSBEWb-1">
          <mxGeometry x="260" y="395" width="420" height="125" as="geometry" />
        </mxCell>
        <mxCell id="jclhH1wUKwlSG_uW3JKL-0" value="&lt;h3&gt;&lt;font&gt;Home&amp;nbsp; &amp;nbsp;Search&amp;nbsp; &amp;nbsp;About Me&amp;nbsp; &amp;nbsp;Contact&lt;/font&gt;&lt;/h3&gt;" style="rounded=1;whiteSpace=wrap;html=1;fillColor=#76608a;fontColor=#ffffff;strokeColor=#432D57;fontSize=12;" vertex="1" parent="E0kDeEo1v7iQbmQSBEWb-1">
          <mxGeometry x="550" y="22.5" width="270" height="45" as="geometry" />
        </mxCell>
      </root>
    </mxGraphModel>
  </diagram>
</mxfile>
